<?xml version="1.0"?>
<svg xmlns="http://www.w3.org/2000/svg" width="440" height="466" viewBox="0 0 440 466" fill="none">
<g filter="url(#filter0_d)">
<rect x="30" y="24" width="380" height="406" rx="4" fill="white"/>
</g>
<path d="M87.5879 346.092C87.5879 347.044 87.2437 347.792 86.5552 348.333C85.8667 348.875 84.917 349.146 83.7061 349.146C82.4951 349.146 81.5039 348.958 80.7324 348.583V346.927C81.2207 347.157 81.7383 347.337 82.2852 347.469C82.8369 347.601 83.3496 347.667 83.8232 347.667C84.5166 347.667 85.0269 347.535 85.354 347.271C85.686 347.008 85.8521 346.654 85.8521 346.209C85.8521 345.809 85.7007 345.47 85.3979 345.191C85.0952 344.913 84.4702 344.583 83.5229 344.203C82.5464 343.807 81.8579 343.355 81.4575 342.848C81.0571 342.34 80.8569 341.729 80.8569 341.017C80.8569 340.123 81.1743 339.42 81.8091 338.907C82.4438 338.395 83.2959 338.138 84.3652 338.138C85.3906 338.138 86.4111 338.363 87.4268 338.812L86.8701 340.24C85.918 339.84 85.0684 339.64 84.3213 339.64C83.7549 339.64 83.3252 339.764 83.0322 340.013C82.7393 340.257 82.5928 340.582 82.5928 340.987C82.5928 341.266 82.6514 341.505 82.7686 341.705C82.8857 341.9 83.0786 342.086 83.3472 342.262C83.6157 342.438 84.0991 342.669 84.7974 342.958C85.5835 343.285 86.1597 343.59 86.5259 343.873C86.8921 344.156 87.1606 344.476 87.3315 344.833C87.5024 345.189 87.5879 345.609 87.5879 346.092ZM92.8651 349.146C91.6054 349.146 90.619 348.78 89.9062 348.048C89.1981 347.311 88.8441 346.297 88.8441 345.008C88.8441 343.685 89.1737 342.645 89.8329 341.888C90.4921 341.131 91.3979 340.753 92.5502 340.753C93.6195 340.753 94.4643 341.078 95.0844 341.727C95.7045 342.376 96.0146 343.27 96.0146 344.408V345.338H90.6166C90.641 346.124 90.8534 346.729 91.2538 347.154C91.6542 347.574 92.2182 347.784 92.9457 347.784C93.4242 347.784 93.8686 347.74 94.2787 347.652C94.6938 347.56 95.1381 347.408 95.6117 347.198V348.597C95.1918 348.797 94.767 348.939 94.3373 349.022C93.9076 349.105 93.4169 349.146 92.8651 349.146ZM92.5502 342.057C92.0033 342.057 91.5639 342.23 91.2318 342.577C90.9047 342.923 90.7094 343.429 90.6459 344.093H94.3227C94.3129 343.424 94.1518 342.918 93.8393 342.577C93.5268 342.23 93.0971 342.057 92.5502 342.057ZM99.5413 349H97.8201V337.604H99.5413V349ZM103.581 349H101.86V337.604H103.581V349ZM107.62 349H105.899V340.899H107.62V349ZM105.796 338.753C105.796 338.446 105.879 338.209 106.046 338.043C106.216 337.877 106.458 337.794 106.771 337.794C107.073 337.794 107.308 337.877 107.474 338.043C107.645 338.209 107.73 338.446 107.73 338.753C107.73 339.046 107.645 339.278 107.474 339.449C107.308 339.615 107.073 339.698 106.771 339.698C106.458 339.698 106.216 339.615 106.046 339.449C105.879 339.278 105.796 339.046 105.796 338.753ZM117.065 349H115.336V344.02C115.336 343.395 115.209 342.928 114.956 342.621C114.707 342.313 114.309 342.159 113.762 342.159C113.034 342.159 112.502 342.374 112.165 342.804C111.828 343.233 111.66 343.954 111.66 344.964V349H109.938V340.899H111.286L111.528 341.961H111.616C111.86 341.576 112.207 341.278 112.656 341.068C113.105 340.858 113.603 340.753 114.15 340.753C116.093 340.753 117.065 341.742 117.065 343.719V349ZM126.151 340.899V341.844L124.767 342.101C124.893 342.271 124.998 342.481 125.081 342.73C125.164 342.979 125.206 343.243 125.206 343.521C125.206 344.356 124.918 345.013 124.342 345.492C123.766 345.97 122.972 346.209 121.961 346.209C121.703 346.209 121.468 346.19 121.258 346.151C120.887 346.38 120.702 346.649 120.702 346.957C120.702 347.142 120.787 347.281 120.958 347.374C121.134 347.467 121.454 347.513 121.917 347.513H123.331C124.225 347.513 124.903 347.704 125.367 348.084C125.831 348.465 126.063 349.015 126.063 349.732C126.063 350.65 125.684 351.358 124.928 351.856C124.171 352.354 123.077 352.604 121.646 352.604C120.543 352.604 119.701 352.408 119.12 352.018C118.538 351.627 118.248 351.07 118.248 350.348C118.248 349.85 118.404 349.43 118.717 349.088C119.034 348.751 119.476 348.517 120.042 348.385C119.813 348.287 119.622 348.131 119.471 347.916C119.325 347.696 119.251 347.467 119.251 347.228C119.251 346.925 119.337 346.668 119.508 346.458C119.679 346.249 119.933 346.041 120.269 345.836C119.85 345.655 119.508 345.362 119.244 344.957C118.985 344.547 118.856 344.068 118.856 343.521C118.856 342.643 119.132 341.961 119.683 341.478C120.24 340.995 121.031 340.753 122.057 340.753C122.286 340.753 122.525 340.77 122.774 340.804C123.028 340.833 123.219 340.865 123.346 340.899H126.151ZM119.786 350.26C119.786 350.631 119.952 350.917 120.284 351.117C120.621 351.317 121.092 351.417 121.698 351.417C122.635 351.417 123.333 351.283 123.792 351.014C124.251 350.746 124.481 350.389 124.481 349.945C124.481 349.593 124.354 349.342 124.1 349.19C123.851 349.044 123.385 348.971 122.701 348.971H121.397C120.904 348.971 120.511 349.085 120.218 349.315C119.93 349.549 119.786 349.864 119.786 350.26ZM120.526 343.521C120.526 344.029 120.655 344.42 120.914 344.693C121.178 344.967 121.554 345.104 122.042 345.104C123.038 345.104 123.536 344.571 123.536 343.507C123.536 342.979 123.412 342.574 123.162 342.291C122.918 342.003 122.545 341.859 122.042 341.859C121.544 341.859 121.165 342 120.907 342.284C120.653 342.567 120.526 342.979 120.526 343.521Z" fill="#1F3349"/>
<rect x="80" y="370" width="60" height="10" rx="5" fill="#D3DBE3"/>
<rect x="80" y="224" width="60" height="10" rx="5" fill="#D3DBE3"/>
<rect x="80" y="204" width="60" height="10" rx="5" fill="#D3DBE3"/>
<rect x="80" y="264" width="79" height="10" rx="5" fill="#D3DBE3"/>
<rect x="80" y="304" width="67" height="10" rx="5" fill="#D3DBE3"/>
<rect x="80" y="284" width="86" height="10" rx="5" fill="#D3DBE3"/>
<rect x="80" y="244" width="79" height="10" rx="5" fill="#D3DBE3"/>
<circle cx="173" cy="249" r="5" fill="#FF8464"/>
<path d="M81.4136 169.292H84.5923C86.0669 169.292 87.1313 169.507 87.7856 169.937C88.4448 170.366 88.7744 171.045 88.7744 171.973C88.7744 172.598 88.6133 173.118 88.291 173.533C87.9688 173.948 87.5049 174.209 86.8994 174.316V174.39C87.6514 174.531 88.2031 174.812 88.5547 175.232C88.9111 175.647 89.0894 176.211 89.0894 176.924C89.0894 177.886 88.7524 178.64 88.0786 179.187C87.4097 179.729 86.4771 180 85.2808 180H81.4136V169.292ZM83.1641 173.716H84.8486C85.5811 173.716 86.1157 173.601 86.4526 173.372C86.7896 173.137 86.958 172.742 86.958 172.185C86.958 171.682 86.7749 171.318 86.4087 171.094C86.0474 170.869 85.4712 170.757 84.6802 170.757H83.1641V173.716ZM83.1641 175.137V178.528H85.0244C85.7568 178.528 86.3086 178.389 86.6797 178.11C87.0557 177.827 87.2437 177.383 87.2437 176.777C87.2437 176.221 87.0532 175.808 86.6724 175.54C86.2915 175.271 85.7129 175.137 84.9365 175.137H83.1641ZM96.6957 180L96.454 178.938H96.3661C96.1269 179.314 95.7851 179.609 95.3407 179.824C94.9013 180.039 94.3983 180.146 93.8319 180.146C92.8505 180.146 92.1181 179.902 91.6347 179.414C91.1513 178.926 90.9096 178.186 90.9096 177.195V171.899H92.6454V176.895C92.6454 177.515 92.7724 177.981 93.0263 178.293C93.2802 178.601 93.6781 178.755 94.2201 178.755C94.9428 178.755 95.4726 178.54 95.8095 178.11C96.1513 177.676 96.3222 176.951 96.3222 175.935V171.899H98.0507V180H96.6957ZM99.1238 171.899H100.999L102.647 176.492C102.896 177.146 103.062 177.761 103.145 178.337H103.203C103.247 178.069 103.328 177.744 103.445 177.363C103.562 176.978 104.182 175.156 105.305 171.899H107.166L103.701 181.077C103.072 182.761 102.022 183.604 100.552 183.604C100.171 183.604 99.8001 183.562 99.4388 183.479V182.117C99.6976 182.175 99.993 182.205 100.325 182.205C101.155 182.205 101.739 181.724 102.075 180.762L102.376 180L99.1238 171.899ZM109.967 180H108.246V171.899H109.967V180ZM108.144 169.753C108.144 169.446 108.227 169.209 108.393 169.043C108.564 168.877 108.805 168.794 109.118 168.794C109.421 168.794 109.655 168.877 109.821 169.043C109.992 169.209 110.077 169.446 110.077 169.753C110.077 170.046 109.992 170.278 109.821 170.449C109.655 170.615 109.421 170.698 109.118 170.698C108.805 170.698 108.564 170.615 108.393 170.449C108.227 170.278 108.144 170.046 108.144 169.753ZM119.412 180H117.684V175.02C117.684 174.395 117.557 173.928 117.303 173.621C117.054 173.313 116.656 173.159 116.109 173.159C115.381 173.159 114.849 173.374 114.512 173.804C114.175 174.233 114.007 174.954 114.007 175.964V180H112.286V171.899H113.633L113.875 172.961H113.963C114.207 172.576 114.554 172.278 115.003 172.068C115.452 171.858 115.95 171.753 116.497 171.753C118.441 171.753 119.412 172.742 119.412 174.719V180ZM128.498 171.899V172.844L127.114 173.101C127.241 173.271 127.346 173.481 127.429 173.73C127.512 173.979 127.553 174.243 127.553 174.521C127.553 175.356 127.265 176.013 126.689 176.492C126.113 176.97 125.319 177.209 124.309 177.209C124.05 177.209 123.815 177.19 123.605 177.151C123.234 177.38 123.049 177.649 123.049 177.957C123.049 178.142 123.134 178.281 123.305 178.374C123.481 178.467 123.801 178.513 124.265 178.513H125.678C126.572 178.513 127.25 178.704 127.714 179.084C128.178 179.465 128.41 180.015 128.41 180.732C128.41 181.65 128.032 182.358 127.275 182.856C126.518 183.354 125.424 183.604 123.994 183.604C122.89 183.604 122.048 183.408 121.467 183.018C120.886 182.627 120.595 182.07 120.595 181.348C120.595 180.85 120.751 180.43 121.064 180.088C121.381 179.751 121.823 179.517 122.39 179.385C122.16 179.287 121.97 179.131 121.818 178.916C121.672 178.696 121.599 178.467 121.599 178.228C121.599 177.925 121.684 177.668 121.855 177.458C122.026 177.249 122.28 177.041 122.617 176.836C122.197 176.655 121.855 176.362 121.591 175.957C121.333 175.547 121.203 175.068 121.203 174.521C121.203 173.643 121.479 172.961 122.031 172.478C122.587 171.995 123.378 171.753 124.404 171.753C124.633 171.753 124.873 171.77 125.122 171.804C125.375 171.833 125.566 171.865 125.693 171.899H128.498ZM122.133 181.26C122.133 181.631 122.299 181.917 122.631 182.117C122.968 182.317 123.439 182.417 124.045 182.417C124.982 182.417 125.681 182.283 126.14 182.014C126.599 181.746 126.828 181.389 126.828 180.945C126.828 180.593 126.701 180.342 126.447 180.19C126.198 180.044 125.732 179.971 125.048 179.971H123.745C123.251 179.971 122.858 180.085 122.565 180.315C122.277 180.549 122.133 180.864 122.133 181.26ZM122.873 174.521C122.873 175.029 123.002 175.42 123.261 175.693C123.525 175.967 123.901 176.104 124.389 176.104C125.385 176.104 125.883 175.571 125.883 174.507C125.883 173.979 125.759 173.574 125.51 173.291C125.266 173.003 124.892 172.859 124.389 172.859C123.891 172.859 123.513 173 123.254 173.284C123 173.567 122.873 173.979 122.873 174.521Z" fill="#1F3349"/>
<rect x="80" y="131" width="60" height="10" rx="5" fill="#D3DBE3"/>
<rect x="80" y="111" width="60" height="10" rx="5" fill="#D3DBE3"/>
<path d="M87.251 87L83.5244 76.2686H83.4541C83.5537 77.8623 83.6035 79.3564 83.6035 80.751V87H81.6963V74.1504H84.6582L88.2266 84.3721H88.2793L91.9531 74.1504H94.9238V87H92.9023V80.6455C92.9023 80.0068 92.917 79.1748 92.9463 78.1494C92.9814 77.124 93.0107 76.5029 93.0342 76.2861H92.9639L89.1055 87H87.251ZM96.4313 77.2793H98.6813L100.659 82.79C100.958 83.5752 101.157 84.3135 101.257 85.0049H101.327C101.38 84.6826 101.476 84.293 101.617 83.8359C101.757 83.373 102.502 81.1875 103.849 77.2793H106.082L101.924 88.292C101.169 90.3135 99.9089 91.3242 98.1452 91.3242C97.6882 91.3242 97.2429 91.2744 96.8093 91.1748V89.54C97.1198 89.6104 97.4743 89.6455 97.8727 89.6455C98.8688 89.6455 99.569 89.0684 99.9733 87.9141L100.334 87L96.4313 77.2793ZM122.544 80.4521C122.544 82.5732 121.955 84.1963 120.777 85.3213C119.6 86.4404 117.903 87 115.689 87H112.094V74.1504H116.066C118.111 74.1504 119.702 74.7012 120.839 75.8027C121.976 76.9043 122.544 78.4541 122.544 80.4521ZM120.329 80.5225C120.329 77.4463 118.891 75.9082 116.014 75.9082H114.194V85.2334H115.689C118.782 85.2334 120.329 83.6631 120.329 80.5225ZM130.995 87L130.582 85.6465H130.511C130.043 86.2383 129.571 86.6426 129.096 86.8594C128.622 87.0703 128.012 87.1758 127.268 87.1758C126.313 87.1758 125.566 86.918 125.027 86.4023C124.494 85.8867 124.227 85.1572 124.227 84.2139C124.227 83.2119 124.599 82.4561 125.343 81.9463C126.088 81.4365 127.221 81.1582 128.745 81.1113L130.424 81.0586V80.54C130.424 79.9189 130.277 79.4561 129.984 79.1514C129.697 78.8408 129.249 78.6855 128.639 78.6855C128.141 78.6855 127.664 78.7588 127.207 78.9053C126.75 79.0518 126.31 79.2246 125.888 79.4238L125.22 77.9473C125.748 77.6719 126.325 77.4639 126.952 77.3232C127.579 77.1768 128.171 77.1035 128.727 77.1035C129.964 77.1035 130.895 77.373 131.522 77.9121C132.155 78.4512 132.471 79.2979 132.471 80.4521V87H130.995ZM127.919 85.5938C128.669 85.5938 129.269 85.3857 129.72 84.9697C130.177 84.5479 130.406 83.959 130.406 83.2031V82.3594L129.158 82.4121C128.185 82.4473 127.476 82.6113 127.031 82.9043C126.592 83.1914 126.372 83.6338 126.372 84.2314C126.372 84.665 126.501 85.002 126.759 85.2422C127.016 85.4766 127.403 85.5938 127.919 85.5938ZM141.704 84.2314C141.704 85.1807 141.359 85.9102 140.667 86.4199C139.976 86.9238 138.986 87.1758 137.697 87.1758C136.402 87.1758 135.362 86.9795 134.577 86.5869V84.8027C135.719 85.3301 136.783 85.5938 137.767 85.5938C139.038 85.5938 139.674 85.21 139.674 84.4424C139.674 84.1963 139.604 83.9912 139.463 83.8271C139.323 83.6631 139.091 83.4932 138.769 83.3174C138.447 83.1416 137.998 82.9424 137.424 82.7197C136.305 82.2861 135.546 81.8525 135.148 81.4189C134.755 80.9854 134.559 80.4229 134.559 79.7314C134.559 78.8994 134.893 78.2549 135.561 77.7979C136.235 77.335 137.149 77.1035 138.303 77.1035C139.446 77.1035 140.527 77.335 141.546 77.7979L140.878 79.3535C139.829 78.9199 138.948 78.7031 138.233 78.7031C137.143 78.7031 136.598 79.0137 136.598 79.6348C136.598 79.9395 136.739 80.1973 137.02 80.4082C137.307 80.6191 137.928 80.9092 138.883 81.2783C139.686 81.5889 140.269 81.873 140.632 82.1309C140.996 82.3887 141.265 82.6875 141.441 83.0273C141.617 83.3613 141.704 83.7627 141.704 84.2314ZM152.317 87H150.243V81.0234C150.243 80.2734 150.091 79.7139 149.786 79.3447C149.487 78.9756 149.01 78.791 148.354 78.791C147.486 78.791 146.848 79.0518 146.438 79.5732C146.033 80.0889 145.831 80.9561 145.831 82.1748V87H143.766V73.3242H145.831V76.7959C145.831 77.3525 145.796 77.9473 145.726 78.5801H145.857C146.139 78.1113 146.528 77.748 147.026 77.4902C147.53 77.2324 148.116 77.1035 148.784 77.1035C151.14 77.1035 152.317 78.29 152.317 80.6631V87ZM159.977 77.1035C161.19 77.1035 162.134 77.543 162.807 78.4219C163.487 79.3008 163.827 80.5342 163.827 82.1221C163.827 83.7158 163.484 84.958 162.799 85.8486C162.113 86.7334 161.161 87.1758 159.942 87.1758C158.712 87.1758 157.757 86.7334 157.077 85.8486H156.936L156.558 87H155.011V73.3242H157.077V76.5762C157.077 76.8164 157.065 77.1738 157.042 77.6484C157.018 78.123 157.001 78.4248 156.989 78.5537H157.077C157.733 77.5869 158.7 77.1035 159.977 77.1035ZM159.441 78.791C158.609 78.791 158.009 79.0371 157.639 79.5293C157.276 80.0156 157.089 80.833 157.077 81.9814V82.1221C157.077 83.3057 157.264 84.1641 157.639 84.6973C158.014 85.2246 158.627 85.4883 159.476 85.4883C160.209 85.4883 160.762 85.1982 161.137 84.6182C161.518 84.0381 161.709 83.2002 161.709 82.1045C161.709 79.8955 160.953 78.791 159.441 78.791ZM174.668 82.1221C174.668 83.71 174.261 84.9492 173.447 85.8398C172.632 86.7305 171.498 87.1758 170.045 87.1758C169.137 87.1758 168.334 86.9707 167.637 86.5605C166.94 86.1504 166.404 85.5615 166.029 84.7939C165.654 84.0264 165.466 83.1357 165.466 82.1221C165.466 80.5459 165.871 79.3154 166.679 78.4307C167.488 77.5459 168.627 77.1035 170.098 77.1035C171.504 77.1035 172.618 77.5576 173.438 78.4658C174.258 79.3682 174.668 80.5869 174.668 82.1221ZM167.593 82.1221C167.593 84.3662 168.422 85.4883 170.081 85.4883C171.721 85.4883 172.541 84.3662 172.541 82.1221C172.541 79.9014 171.715 78.791 170.063 78.791C169.196 78.791 168.566 79.0781 168.173 79.6523C167.787 80.2266 167.593 81.0498 167.593 82.1221ZM182.952 87L182.539 85.6465H182.469C182 86.2383 181.528 86.6426 181.054 86.8594C180.579 87.0703 179.97 87.1758 179.226 87.1758C178.271 87.1758 177.524 86.918 176.984 86.4023C176.451 85.8867 176.185 85.1572 176.185 84.2139C176.185 83.2119 176.557 82.4561 177.301 81.9463C178.045 81.4365 179.179 81.1582 180.702 81.1113L182.381 81.0586V80.54C182.381 79.9189 182.234 79.4561 181.942 79.1514C181.654 78.8408 181.206 78.6855 180.597 78.6855C180.099 78.6855 179.621 78.7588 179.164 78.9053C178.707 79.0518 178.268 79.2246 177.846 79.4238L177.178 77.9473C177.705 77.6719 178.282 77.4639 178.909 77.3232C179.536 77.1768 180.128 77.1035 180.685 77.1035C181.921 77.1035 182.853 77.373 183.48 77.9121C184.112 78.4512 184.429 79.2979 184.429 80.4521V87H182.952ZM179.876 85.5938C180.626 85.5938 181.227 85.3857 181.678 84.9697C182.135 84.5479 182.363 83.959 182.363 83.2031V82.3594L181.115 82.4121C180.143 82.4473 179.434 82.6113 178.988 82.9043C178.549 83.1914 178.329 83.6338 178.329 84.2314C178.329 84.665 178.458 85.002 178.716 85.2422C178.974 85.4766 179.36 85.5938 179.876 85.5938ZM192.062 77.1035C192.478 77.1035 192.821 77.1328 193.091 77.1914L192.888 79.1162C192.596 79.0459 192.291 79.0107 191.974 79.0107C191.148 79.0107 190.477 79.2803 189.962 79.8193C189.452 80.3584 189.197 81.0586 189.197 81.9199V87H187.132V77.2793H188.749L189.021 78.9932H189.127C189.449 78.4131 189.868 77.9531 190.384 77.6133C190.905 77.2734 191.465 77.1035 192.062 77.1035ZM197.999 87.1758C196.787 87.1758 195.84 86.7363 195.161 85.8574C194.481 84.9785 194.141 83.7451 194.141 82.1572C194.141 80.5635 194.484 79.3242 195.169 78.4395C195.861 77.5488 196.816 77.1035 198.035 77.1035C199.312 77.1035 200.285 77.5752 200.953 78.5186H201.058C200.958 77.8213 200.909 77.2705 200.909 76.8662V73.3242H202.983V87H201.366L201.005 85.7256H200.909C200.247 86.6924 199.277 87.1758 197.999 87.1758ZM198.553 85.5059C199.403 85.5059 200.021 85.2686 200.408 84.7939C200.794 84.3135 200.994 83.5371 201.005 82.4648V82.1748C201.005 80.9502 200.806 80.0801 200.408 79.5645C200.009 79.0488 199.385 78.791 198.536 78.791C197.809 78.791 197.249 79.0869 196.857 79.6787C196.464 80.2646 196.268 81.1025 196.268 82.1924C196.268 83.2705 196.458 84.0938 196.839 84.6621C197.22 85.2246 197.791 85.5059 198.553 85.5059Z" fill="#1F3349"/>
<rect x="216" y="321" width="144" height="10" rx="5" fill="#D3DBE3"/>
<rect x="216" y="341" width="144" height="10" rx="5" fill="#D3DBE3"/>
<rect x="216" y="221" width="40.0755" height="10" rx="5" fill="#D3DBE3"/>
<rect x="216" y="241" width="80.8302" height="10" rx="5" fill="#D3DBE3"/>
<rect x="216" y="261" width="57.7358" height="10" rx="5" fill="#D3DBE3"/>
<rect x="216" y="281" width="73.3585" height="10" rx="5" fill="#D3DBE3"/>
<rect x="321.283" y="221" width="38.717" height="10" rx="5" fill="#D3DBE3"/>
<rect x="321.283" y="241" width="38.717" height="10" rx="5" fill="#D3DBE3"/>
<rect x="321.283" y="261" width="38.717" height="10" rx="5" fill="#D3DBE3"/>
<rect x="321.283" y="281" width="38.717" height="10" rx="5" fill="#D3DBE3"/>
<rect x="216" y="111" width="144" height="10" rx="5" fill="#D3DBE3"/>
<rect x="216" y="131" width="144" height="10" rx="5" fill="#D3DBE3"/>
<rect x="216" y="161" width="144" height="10" rx="5" fill="#D3DBE3"/>
<rect x="216" y="181" width="144" height="10" rx="5" fill="#D3DBE3"/>
<defs>
<filter id="filter0_d" x="0" y="0" width="440" height="466" filterUnits="userSpaceOnUse" color-interpolation-filters="sRGB">
<feFlood flood-opacity="0" result="BackgroundImageFix"/>
<feColorMatrix in="SourceAlpha" type="matrix" values="0 0 0 0 0 0 0 0 0 0 0 0 0 0 0 0 0 0 127 0"/>
<feOffset dy="6"/>
<feGaussianBlur stdDeviation="15"/>
<feColorMatrix type="matrix" values="0 0 0 0 0 0 0 0 0 0 0 0 0 0 0 0 0 0 0.2 0"/>
<feBlend mode="normal" in2="BackgroundImageFix" result="effect1_dropShadow"/>
<feBlend mode="normal" in="SourceGraphic" in2="effect1_dropShadow" result="shape"/>
</filter>
</defs>
</svg>
